<svg width="722" height="722" viewBox="0 0 722 722" fill="none" xmlns="http://www.w3.org/2000/svg">
<circle cx="361" cy="361" r="358" stroke="white" stroke-width="6"/>
<path d="M419.039 512.208L405.634 518.914L433.7 610.486L447.732 605.248L448.779 608.6L427.94 620.964L425.741 620.23L395.686 522.057L380.606 524.047L379.559 520.695L417.991 508.96L419.039 512.208ZM452.759 649.148C454.12 653.549 451.398 658.263 446.999 659.625C442.601 660.988 437.993 658.578 436.632 654.177C435.27 649.777 437.574 644.538 441.973 643.385C446.476 642.128 451.398 644.748 452.759 649.148Z" fill="white"/>
<path d="M379.981 575.703C376.839 608.288 360.503 633.433 330.867 630.605C315.682 629.138 306.152 622.223 300.602 614.888L295.052 672.514L310.027 673.981L309.713 677.229L285.208 680.896L283.847 680.058L298.927 523.735L284.266 524.154L284.58 520.906L308.456 515.981L309.294 517.239L306.362 547.833L307.304 547.938C317.148 530.126 331.285 517.972 350.764 519.858C372.232 522.058 383.123 543.328 379.981 575.703ZM306.257 556.739L301.44 607.345C307.618 615.622 317.043 623.48 330.343 624.737C351.287 626.728 365.32 608.183 368.462 575.074C371.603 542.175 361.341 528.24 347.098 526.878C326.992 524.887 311.807 545.528 306.257 556.739Z" fill="white"/>
<path d="M216.718 635.318C214.519 639.404 209.388 640.766 205.304 638.671C201.22 636.47 199.754 631.546 201.848 627.46C204.047 623.373 209.388 621.278 213.263 623.688C217.347 625.993 218.918 631.232 216.718 635.318ZM289.919 514.827L275.677 510.112L230.542 594.561L244.155 600.847L242.48 603.885L219.022 597.913L218.08 595.818L266.461 505.188L254.418 495.863L256.094 492.825L291.49 511.684L289.919 514.827Z" fill="white"/>
<path d="M217.453 531.801C192.11 552.547 162.788 558.623 143.938 535.573C134.304 523.734 132.524 512.104 133.78 502.988L88.9596 539.659L98.4892 551.289L95.9759 553.385L76.0788 538.507L75.7646 537.04L197.346 437.714L186.769 427.656L189.283 425.56L209.599 439.076L209.285 440.543L185.513 459.926L186.141 460.659C205.724 455.106 224.26 456.678 236.721 471.87C250.021 488.529 242.586 511.161 217.453 531.801ZM179.02 466.108L139.645 498.273C138.179 508.437 139.226 520.695 147.708 531.068C161.008 547.308 184.047 544.269 209.808 523.21C235.36 502.36 238.083 485.177 229.077 474.175C216.196 458.354 190.854 462.022 179.02 466.108Z" fill="white"/>
<path d="M60.2612 457.935C55.8629 459.297 51.1504 456.573 49.8938 452.173C48.5324 447.772 51.0457 443.162 55.444 441.8C59.8423 440.438 65.0784 442.743 66.2303 447.248C67.3823 451.649 64.6595 456.573 60.2612 457.935ZM197.342 425.141L190.639 411.73L98.9034 439.181L104.035 453.325L100.684 454.373L88.4313 433.418L89.269 431.218L187.602 401.776L185.717 386.689L189.069 385.746L200.588 424.198L197.342 425.141Z" fill="white"/>
<path d="M134.303 385.326C101.734 381.868 76.8105 365.314 79.9521 335.663C81.523 320.471 88.644 311.041 95.8698 305.593L38.273 299.516L36.7022 314.394L33.4558 314.079L30 289.562L30.8378 288.2L186.873 304.755L186.559 290.086L189.805 290.4L194.517 314.289L193.261 315.127L162.787 311.879L162.682 312.822C180.38 322.88 192.423 337.13 190.329 356.618C187.92 377.992 166.661 388.784 134.303 385.326ZM153.885 311.774L103.41 306.431C95.1367 312.508 87.1779 321.938 85.7118 335.244C83.5127 356.199 101.944 370.343 135.036 373.906C167.813 377.363 181.951 367.305 183.417 353.056C185.511 332.729 165.091 317.327 153.885 311.774Z" fill="white"/>
<path d="M76.1799 221.67C72.0958 219.47 70.7344 214.231 72.9335 210.145C75.1327 206.059 80.1593 204.592 84.2434 206.792C88.3276 208.993 90.422 214.336 88.0134 218.318C85.6048 222.299 80.264 223.871 76.1799 221.67ZM195.981 296.06L200.798 281.916L116.707 236.024L110.319 249.645L107.282 247.969L113.461 224.499L115.555 223.556L205.72 272.695L215.145 260.751L218.182 262.428L198.913 297.736L195.981 296.06Z" fill="white"/>
<path d="M179.646 223.033C159.226 197.363 153.466 168.026 176.819 149.376C188.757 139.842 200.381 138.27 209.492 139.632L173.363 94.265L161.634 103.59L159.645 101.075L174.724 81.3778L176.191 81.0635L274 203.859L284.263 193.382L286.253 195.896L272.43 216.118L270.963 215.803L251.799 191.81L251.066 192.334C256.407 212.031 254.627 230.576 239.338 242.73C222.582 256.141 199.962 248.493 179.646 223.033ZM245.83 185.314L214.204 145.604C204.046 143.928 191.794 144.871 181.322 153.253C164.881 166.35 167.708 189.505 188.443 215.489C208.968 241.368 226.143 244.197 237.243 235.291C253.161 222.614 249.705 197.258 245.83 185.314Z" fill="white"/>
<path d="M255.356 66.6045C254.099 62.204 256.822 57.4891 261.325 56.2319C265.723 54.9746 270.331 57.4891 271.588 61.8897C272.844 66.2902 270.54 71.5289 266.037 72.5766C261.534 73.6244 256.612 71.005 255.356 66.6045ZM286.458 204.173L299.967 197.677L273.682 105.581L259.545 110.61L258.602 107.257L279.651 95.2079L281.85 96.0461L310.02 194.848L325.1 193.172L326.043 196.525L287.401 207.526L286.458 204.173Z" fill="white"/>
<path d="M326.784 141.412C330.554 108.827 347.309 83.9959 376.945 87.4535C392.13 89.2346 401.45 96.3593 406.896 103.693L413.493 46.1724L398.623 44.3912L399.042 41.1432L423.442 38L424.698 38.8382L406.686 194.742L421.347 194.533L420.928 197.781L396.947 202.181L396.214 200.924L399.775 170.435L398.832 170.33C388.674 187.932 374.327 199.772 354.849 197.571C333.591 195.161 323.014 173.788 326.784 141.412ZM400.193 161.738L406.058 111.237C400.089 102.855 390.769 94.7877 377.469 93.3208C356.629 90.911 342.178 109.247 338.408 142.25C334.638 175.045 344.586 189.189 358.829 190.866C378.935 193.171 394.434 172.949 400.193 161.738Z" fill="white"/>
<path d="M350.236 307.584L339.345 338.492L335.889 337.549L339.136 312.403C320.181 312.613 300.808 349.074 290.231 380.926H290.021L283.529 414.349H273.58L292.954 314.604L277.455 316.699L278.188 311.879L303.53 304.44L304.682 305.593L294.734 356.408C303.53 332.415 318.715 304.65 344.581 304.65L350.236 307.584Z" fill="white"/>
<path d="M429.614 401.566L430.975 405.443L410.031 417.701L402.91 412.358L412.544 362.066C401.967 387.422 384.583 417.911 364.582 417.911C350.758 417.911 345.627 403.347 345.627 386.269C345.627 346.35 365.524 304.126 397.569 304.126C408.46 304.126 416.209 308.527 421.969 313.87L423.121 307.584H433.069L413.486 407.748L429.614 401.566ZM420.817 319.842C414.534 315.023 406.47 310.832 398.616 310.832C370.97 310.832 356.204 351.694 356.204 384.697C356.204 398.737 359.869 409.843 368.456 409.843C387.201 409.843 406.261 366.467 416.733 340.587L420.817 319.842Z" fill="white"/>
<path d="M527.005 401.777L528.367 405.444L507.841 417.703L500.197 412.359L505.014 384.908L509.412 363.22C498.835 388.156 481.766 417.912 461.869 417.912C448.045 417.912 442.914 403.348 442.914 386.27C442.914 346.351 462.811 304.127 494.856 304.127C505.747 304.127 513.81 308.737 519.57 314.081L530.461 260.331L513.601 262.637L514.334 257.817L539.677 250.378L540.829 251.53L527.215 322.672V322.882H527.005L511.088 405.968L527.005 401.777ZM518.209 319.843C512.24 315.024 504.176 310.833 496.008 310.833C468.361 310.833 453.596 351.695 453.596 384.699C453.596 398.738 457.261 409.844 465.848 409.844C484.593 409.844 503.652 366.468 514.125 340.589L518.209 319.843Z" fill="white"/>
<path d="M547.318 412.359L566.692 314.709L550.984 316.804L551.926 311.985L577.269 304.546L578.421 305.698L558.105 407.749L574.232 401.567L575.803 405.443L554.858 417.702L547.318 412.359ZM569.205 270.913C569.415 266.513 572.87 263.055 577.269 263.055C581.667 263.055 584.704 266.513 584.913 270.913C585.123 275.523 581.667 278.981 577.269 278.981C572.87 278.981 568.996 275.523 569.205 270.913Z" fill="white"/>
<path d="M589.319 377.259C589.319 341.217 608.693 304.755 640.528 304.755C660.111 304.755 671.002 319.529 671.002 343.731C671.002 379.983 651.838 417.178 620.003 417.178C599.896 417.283 589.319 401.567 589.319 377.259ZM659.692 343.836C659.692 322.567 652.257 310.413 638.957 310.413C613.615 310.413 600.42 348.237 600.42 377.783C600.42 399.471 608.483 411.73 621.364 411.73C646.288 411.73 659.692 374.535 659.692 343.836Z" fill="white"/>
</svg>
