<svg width="722" height="722" viewBox="0 0 722 722" fill="none" xmlns="http://www.w3.org/2000/svg">
<circle cx="361" cy="361" r="359" fill="white" stroke="#001AFF" stroke-width="4"/>
<path d="M419.039 512.208L405.634 518.914L433.7 610.486L447.732 605.248L448.779 608.6L427.94 620.964L425.741 620.23L395.686 522.057L380.606 524.047L379.559 520.695L417.991 508.96L419.039 512.208ZM452.759 649.148C454.12 653.549 451.398 658.263 446.999 659.625C442.601 660.988 437.993 658.578 436.632 654.177C435.27 649.777 437.574 644.538 441.973 643.385C446.476 642.128 451.398 644.748 452.759 649.148Z" fill="#0000FF"/>
<path d="M379.981 575.703C376.839 608.288 360.503 633.433 330.867 630.605C315.682 629.138 306.152 622.223 300.602 614.888L295.052 672.514L310.027 673.981L309.713 677.229L285.208 680.896L283.847 680.058L298.927 523.735L284.266 524.154L284.58 520.906L308.456 515.981L309.294 517.239L306.362 547.833L307.304 547.938C317.148 530.126 331.285 517.972 350.764 519.858C372.232 522.058 383.123 543.328 379.981 575.703ZM306.257 556.739L301.44 607.345C307.618 615.622 317.043 623.48 330.343 624.737C351.287 626.728 365.32 608.183 368.462 575.074C371.603 542.175 361.341 528.24 347.098 526.878C326.992 524.887 311.807 545.528 306.257 556.739Z" fill="#0000FF"/>
<path d="M216.718 635.318C214.519 639.404 209.388 640.766 205.304 638.671C201.22 636.47 199.754 631.546 201.848 627.46C204.047 623.373 209.388 621.278 213.263 623.688C217.347 625.993 218.918 631.232 216.718 635.318ZM289.919 514.827L275.677 510.112L230.542 594.561L244.155 600.847L242.48 603.885L219.022 597.913L218.08 595.818L266.461 505.188L254.418 495.863L256.094 492.825L291.49 511.684L289.919 514.827Z" fill="#0000FF"/>
<path d="M217.453 531.801C192.11 552.547 162.788 558.623 143.938 535.573C134.304 523.734 132.524 512.104 133.78 502.988L88.9596 539.659L98.4892 551.289L95.9759 553.385L76.0788 538.507L75.7646 537.04L197.346 437.714L186.769 427.656L189.283 425.56L209.599 439.076L209.284 440.543L185.513 459.926L186.141 460.659C205.724 455.106 224.26 456.678 236.722 471.87C250.021 488.529 242.586 511.161 217.453 531.801ZM179.02 466.108L139.645 498.273C138.179 508.437 139.226 520.695 147.708 531.068C161.008 547.308 184.047 544.269 209.808 523.21C235.36 502.36 238.083 485.177 229.077 474.175C216.196 458.354 190.854 462.022 179.02 466.108Z" fill="#0000FF"/>
<path d="M60.2612 457.935C55.8629 459.297 51.1504 456.573 49.8938 452.173C48.5324 447.772 51.0457 443.162 55.444 441.8C59.8423 440.438 65.0784 442.743 66.2303 447.248C67.3823 451.649 64.6595 456.573 60.2612 457.935ZM197.342 425.141L190.639 411.73L98.9034 439.181L104.035 453.325L100.684 454.373L88.4313 433.418L89.269 431.218L187.602 401.776L185.717 386.689L189.069 385.746L200.588 424.198L197.342 425.141Z" fill="#0000FF"/>
<path d="M134.303 385.326C101.734 381.868 76.8105 365.314 79.9521 335.663C81.523 320.471 88.644 311.041 95.8698 305.593L38.273 299.516L36.7022 314.394L33.4558 314.079L30 289.562L30.8378 288.2L186.873 304.755L186.559 290.086L189.805 290.4L194.517 314.289L193.261 315.127L162.787 311.879L162.682 312.822C180.38 322.88 192.423 337.13 190.329 356.618C187.92 377.992 166.662 388.784 134.303 385.326ZM153.885 311.774L103.41 306.431C95.1368 312.508 87.1779 321.938 85.7118 335.244C83.5127 356.199 101.944 370.343 135.036 373.906C167.813 377.363 181.951 367.305 183.417 353.056C185.511 332.729 165.091 317.327 153.885 311.774Z" fill="#0000FF"/>
<path d="M76.1799 221.67C72.0958 219.47 70.7344 214.231 72.9335 210.145C75.1327 206.059 80.1593 204.592 84.2434 206.792C88.3276 208.993 90.422 214.336 88.0134 218.318C85.6048 222.299 80.264 223.871 76.1799 221.67ZM195.981 296.06L200.798 281.916L116.707 236.024L110.319 249.645L107.282 247.969L113.461 224.499L115.555 223.556L205.72 272.695L215.145 260.751L218.182 262.428L198.913 297.736L195.981 296.06Z" fill="#0000FF"/>
<path d="M179.646 223.033C159.226 197.363 153.466 168.026 176.819 149.376C188.757 139.842 200.381 138.27 209.492 139.632L173.363 94.265L161.634 103.59L159.645 101.075L174.724 81.3778L176.191 81.0635L274 203.859L284.263 193.382L286.253 195.896L272.43 216.118L270.963 215.803L251.799 191.81L251.066 192.334C256.407 212.031 254.627 230.576 239.338 242.73C222.582 256.141 199.962 248.493 179.646 223.033ZM245.83 185.314L214.204 145.604C204.046 143.928 191.794 144.871 181.322 153.253C164.881 166.35 167.708 189.505 188.443 215.489C208.968 241.368 226.143 244.197 237.243 235.291C253.161 222.614 249.705 197.258 245.83 185.314Z" fill="#0000FF"/>
<path d="M255.356 66.6045C254.099 62.204 256.822 57.4891 261.325 56.2319C265.723 54.9746 270.331 57.4891 271.588 61.8897C272.844 66.2902 270.54 71.5289 266.037 72.5766C261.534 73.6244 256.612 71.005 255.356 66.6045ZM286.458 204.173L299.967 197.677L273.682 105.581L259.545 110.61L258.602 107.257L279.651 95.2079L281.85 96.0461L310.02 194.848L325.1 193.172L326.043 196.525L287.401 207.526L286.458 204.173Z" fill="#0000FF"/>
<path d="M326.784 141.412C330.554 108.827 347.309 83.9959 376.945 87.4535C392.13 89.2346 401.45 96.3593 406.896 103.694L413.493 46.1724L398.623 44.3912L399.042 41.1432L423.442 38L424.698 38.8382L406.686 194.742L421.347 194.533L420.928 197.781L396.947 202.181L396.214 200.924L399.775 170.435L398.832 170.33C388.674 187.932 374.327 199.772 354.849 197.571C333.591 195.161 323.014 173.788 326.784 141.412ZM400.193 161.738L406.058 111.237C400.089 102.855 390.769 94.7877 377.469 93.3208C356.629 90.911 342.178 109.247 338.408 142.25C334.638 175.045 344.586 189.189 358.829 190.866C378.935 193.171 394.434 172.949 400.193 161.738Z" fill="#0000FF"/>
<path d="M311.122 334.526C302.619 347.602 295.161 364.572 289.87 380.426H289.609L289.531 380.83L283.116 413.849H274.187L293.444 314.699L293.577 314.015L292.887 314.108L278.049 316.114L278.634 312.269L303.387 305.004L304.141 305.758L294.243 356.312L295.203 356.581C299.594 344.604 305.566 331.725 313.643 321.848C321.691 312.008 331.786 305.194 344.46 305.15L349.62 307.827L339.028 337.887L336.441 337.181L339.632 312.467L339.705 311.897L339.13 311.903C334.23 311.957 329.356 314.353 324.662 318.338C319.964 322.326 315.405 327.942 311.122 334.526Z" fill="#0000FF" stroke="black"/>
<path d="M432.462 308.084L412.996 407.652L412.823 408.538L413.665 408.215L429.312 402.217L430.367 405.219L410.065 417.102L403.459 412.145L413.035 362.16L412.082 361.874C406.801 374.534 399.83 388.452 391.698 399.195C383.545 409.967 374.33 417.411 364.582 417.411C357.892 417.411 353.306 413.908 350.364 408.263C347.406 402.59 346.127 394.772 346.127 386.269C346.127 366.383 351.085 345.937 360.014 330.478C368.946 315.014 381.795 304.626 397.569 304.626C408.306 304.626 415.939 308.958 421.629 314.237L422.297 314.856L422.461 313.96L423.538 308.084H432.462ZM421.308 319.939L421.367 319.634L421.121 319.445C414.803 314.599 406.632 310.332 398.616 310.332C384.509 310.332 373.775 320.759 366.595 335.165C359.407 349.587 355.704 368.132 355.704 384.697C355.704 391.749 356.623 398.114 358.652 402.736C360.686 407.368 363.888 410.343 368.456 410.343C373.336 410.343 378.162 407.525 382.784 403.019C387.415 398.505 391.908 392.233 396.126 385.177C404.564 371.062 411.959 353.717 417.196 340.775L417.214 340.731L417.223 340.684L421.308 319.939Z" fill="#0000FF" stroke="black"/>
<path d="M530.393 259.836L514.196 262.051L514.781 258.207L539.533 250.941L540.288 251.697L526.761 322.382H526.592L526.514 322.788L510.597 405.874L510.447 406.653L511.215 406.451L526.694 402.376L527.753 405.228L507.863 417.107L500.744 412.132L505.504 385.008L505.506 384.995L509.902 363.319L508.952 363.025C503.67 375.476 496.778 389.106 488.738 399.613C480.679 410.147 471.567 417.412 461.869 417.412C455.179 417.412 450.593 413.909 447.651 408.264C444.694 402.591 443.414 394.773 443.414 386.27C443.414 366.385 448.372 345.938 457.301 330.479C466.233 315.016 479.082 304.627 494.856 304.627C505.591 304.627 513.538 309.167 519.23 314.447L519.883 315.053L520.06 314.18L530.951 260.431L531.091 259.741L530.393 259.836ZM518.699 319.94L518.758 319.644L518.523 319.454C512.508 314.598 504.336 310.333 496.008 310.333C481.901 310.333 471.166 320.76 463.987 335.166C456.799 349.588 453.096 368.134 453.096 384.699C453.096 391.75 454.014 398.115 456.044 402.737C458.077 407.369 461.28 410.344 465.848 410.344C470.728 410.344 475.554 407.526 480.176 403.021C484.807 398.506 489.299 392.234 493.518 385.178C501.956 371.063 509.351 353.718 514.588 340.776L514.606 340.732L514.615 340.685L518.699 319.94Z" fill="#0000FF" stroke="black"/>
<path d="M566.626 314.213L551.608 316.217L552.358 312.379L577.125 305.109L577.878 305.863L557.614 407.651L557.437 408.54L558.284 408.215L573.953 402.209L575.177 405.23L554.884 417.108L547.872 412.138L567.182 314.806L567.318 314.121L566.626 314.213ZM569.705 270.936C569.903 266.789 573.151 263.555 577.269 263.555C581.353 263.555 584.215 266.753 584.414 270.937C584.61 275.258 581.385 278.481 577.269 278.481C573.116 278.481 569.51 275.223 569.705 270.936Z" fill="#0000FF" stroke="black"/>
<path d="M620.003 416.678L620 416.678C610.095 416.73 602.579 412.893 597.523 406.076C592.451 399.237 589.819 389.35 589.819 377.259C589.819 359.319 594.643 341.291 603.405 327.763C612.165 314.24 624.827 305.255 640.528 305.255C650.18 305.255 657.646 308.888 662.712 315.472C667.793 322.074 670.502 331.696 670.502 343.731C670.502 361.778 665.73 380.044 657.018 393.782C648.309 407.516 635.699 416.678 620.003 416.678ZM660.192 343.836C660.192 333.156 658.327 324.694 654.737 318.886C651.13 313.049 645.789 309.913 638.957 309.913C625.999 309.913 616.234 319.586 609.736 332.798C603.23 346.027 599.92 362.947 599.92 377.783C599.92 388.679 601.944 397.27 605.638 403.156C609.347 409.064 614.737 412.23 621.364 412.23C634.112 412.23 643.825 402.715 650.323 389.516C656.83 376.299 660.192 359.247 660.192 343.836Z" fill="#0000FF" stroke="black"/>
</svg>
